<?xml version="1.0" standalone="no"?><!DOCTYPE svg PUBLIC "-//W3C//DTD SVG 1.1//EN" "http://www.w3.org/Graphics/SVG/1.1/DTD/svg11.dtd"><svg t="1751870621693" class="icon" viewBox="0 0 1024 1024" version="1.1" xmlns="http://www.w3.org/2000/svg" p-id="2138" xmlns:xlink="http://www.w3.org/1999/xlink" width="200" height="200"><path d="M387.392 542.72c20.032 0 36.608 16.896 39.424 38.912l0.448 6.72v262.016c0 22.912-14.72 41.856-33.984 45.12L387.392 896h-251.52c-20.032 0-36.608-16.896-39.424-38.848l-0.448-6.784V588.352c0-22.848 14.72-41.856 33.984-45.12l5.888-0.448h251.52z m526.912 245.632a12.8 12.8 0 0 1 12.288 9.408l0.512 3.392v64a12.8 12.8 0 0 1-9.408 12.352l-3.392 0.448H499.84a12.8 12.8 0 0 1-12.352-9.408l-0.448-3.392v-64a12.8 12.8 0 0 1 9.408-12.352l3.392-0.448h414.4zM337.6 632.32H185.6v174.08h152V632.32z m576.64-58.24a12.8 12.8 0 0 1 12.352 9.344l0.512 3.456v64a12.8 12.8 0 0 1-9.408 12.288l-3.392 0.512H499.84a12.8 12.8 0 0 1-12.352-9.408l-0.448-3.392v-64a12.8 12.8 0 0 1 9.408-12.352l3.392-0.448h414.4zM395.264 128a32 32 0 0 1 31.552 26.24l0.512 5.76v284.48a32 32 0 0 1-26.24 31.424l-5.76 0.576H128a32 32 0 0 1-31.488-26.24l-0.512-5.76V160a32 32 0 0 1 26.24-31.488L128 128h267.264z m519.04 231.808a12.8 12.8 0 0 1 12.352 9.344l0.512 3.456v64a12.8 12.8 0 0 1-9.408 12.288l-3.392 0.512H499.84a12.8 12.8 0 0 1-12.352-9.408l-0.448-3.392v-64a12.8 12.8 0 0 1 9.408-12.352l3.392-0.448h414.4zM337.664 217.6H185.6v169.216h152V217.6zM921.6 138.048a6.4 6.4 0 0 1 5.888 3.968l0.512 2.432v76.8a6.4 6.4 0 0 1-3.904 5.952l-2.496 0.448H494.464a6.4 6.4 0 0 1-5.952-3.84l-0.448-2.56v-76.8a6.4 6.4 0 0 1 3.84-5.888l2.56-0.512H921.6z" p-id="2139" fill="#d4237a"></path></svg>